<?xml version="1.0" encoding="UTF-8" standalone="no"?>
<!DOCTYPE svg PUBLIC "-//W3C//DTD SVG 1.1//EN" "http://www.w3.org/Graphics/SVG/1.1/DTD/svg11.dtd">
<svg width="100%" height="100%" viewBox="0 0 512 512" version="1.1" xmlns="http://www.w3.org/2000/svg" xmlns:xlink="http://www.w3.org/1999/xlink" xml:space="preserve" xmlns:serif="http://www.serif.com/" style="fill-rule:evenodd;clip-rule:evenodd;stroke-linejoin:round;stroke-miterlimit:2;">
    <g transform="matrix(1.33333,7.19312e-34,-8.43293e-34,1.33333,-85.3333,-853.333)">
        <g id="Symbol">
            <path d="M360,897.373L360,920L256,1024L208,976L230.627,976L256,1001.37L360,897.373ZM256,990.059L360,886.059L360,897.373L256,1001.37L230.627,976L241.941,976L256,990.059ZM136,952L282.745,952L266.745,968L120,968L120,899.314L136,915.314L136,952ZM376,805.255L392,821.255L392,968L323.314,968L339.314,952L376,952L376,805.255ZM144,923.314L144,944L290.745,944L282.745,952L136,952L136,915.314L144,923.314ZM368,944L368,797.255L376,805.255L376,952L339.314,952L347.314,944L368,944ZM112,806.627L112,817.941L97.941,832L201.941,936L190.627,936L86.627,832L112,806.627ZM112,784L112,806.627L86.627,832L190.627,936L168,936L64,832L112,784ZM344,728L448,832L400,880L400,857.373L425.373,832L321.373,728L344,728ZM172.686,712L164.686,720L144,720L144,866.745L136,858.745L136,712L172.686,712ZM425.373,832L400,857.373L400,846.059L414.059,832L310.059,728L321.373,728L425.373,832ZM188.686,696L172.686,712L136,712L136,858.745L120,842.745L120,696L188.686,696ZM281.373,688L270.059,688L256,673.941L152,777.941L152,766.627L256,662.627L281.373,688ZM392,764.686L376,748.686L376,712L229.255,712L245.255,696L392,696L392,764.686ZM304,688L281.373,688L256,662.627L152,766.627L152,744L256,640L304,688ZM376,748.686L368,740.686L368,720L221.255,720L229.255,712L376,712L376,748.686Z" style="fill:white;"/>
        </g>
    </g>
</svg>
